
<svg width="152" height="152" viewBox="0 0 152 152" xmlns="http://www.w3.org/2000/svg">
  <!-- 背景圆角矩形 -->
  <defs>
    <linearGradient id="grad1" x1="0%" y1="0%" x2="100%" y2="100%">
      <stop offset="0%" style="stop-color:#3B82F6;stop-opacity:1" />
      <stop offset="100%" style="stop-color:#1E40AF;stop-opacity:1" />
    </linearGradient>
    <filter id="shadow" x="-20%" y="-20%" width="140%" height="140%">
      <feDropShadow dx="0" dy="4" stdDeviation="8" flood-color="#000" flood-opacity="0.2"/>
    </filter>
  </defs>
  
  <!-- 主背景 -->
  <rect width="152" height="152" rx="22.8" ry="22.8" fill="url(#grad1)" filter="url(#shadow)"/>
  
  <!-- 旅行图标 -->
  <g transform="translate(30.400000000000002, 30.400000000000002) scale(0.912)">
    <!-- 地图图标 -->
    <path d="M12 2C8.13 2 5 5.13 5 9c0 5.25 7 13 7 13s7-7.75 7-13c0-3.87-3.13-7-7-7zm0 9.5c-1.38 0-2.5-1.12-2.5-2.5s1.12-2.5 2.5-2.5 2.5 1.12 2.5 2.5-1.12 2.5-2.5 2.5z" 
          fill="#ffffff" 
          opacity="0.9"
          transform="scale(3) translate(10, 10)"/>
    
    <!-- 装饰性元素 -->
    <circle cx="60" cy="40" r="6" fill="#ffffff" opacity="0.6"/>
    <circle cx="80" cy="60" r="4" fill="#ffffff" opacity="0.4"/>
    <circle cx="40" cy="70" r="5" fill="#ffffff" opacity="0.5"/>
  </g>
  
  <!-- 应用名称 (在较大尺寸时显示) -->
  
</svg>